<?xml version="1.0" standalone="no"?>
<!DOCTYPE svg PUBLIC "-//W3C//DTD SVG 20010904//EN"
 "http://www.w3.org/TR/2001/REC-SVG-20010904/DTD/svg10.dtd">
<svg version="1.0" xmlns="http://www.w3.org/2000/svg"
 width="141.000000pt" height="141.000000pt" viewBox="0 0 141.000000 141.000000"
 preserveAspectRatio="xMidYMid meet">
<metadata>
Created by potrace 1.11, written by Peter Selinger 2001-2013
</metadata>
<g transform="translate(0.000000,141.000000) scale(0.100000,-0.100000)"
fill="#000000" stroke="none">
<path d="M0 705 l0 -705 705 0 705 0 0 705 0 705 -705 0 -705 0 0 -705z m918
560 c31 -9 70 -31 93 -52 26 -24 45 -34 59 -30 18 5 19 1 13 -57 -3 -33 -9
-64 -12 -69 -4 -4 -30 10 -59 31 -38 29 -48 42 -40 50 15 15 -2 35 -46 56 -46
22 -399 23 -450 2 -42 -18 -85 -73 -93 -120 -5 -33 -8 -36 -40 -36 -28 0 -33
3 -29 18 2 9 7 31 11 49 14 71 94 143 180 163 17 4 104 8 195 9 125 1 178 -2
218 -14z m-442 -300 c58 -36 108 -113 119 -180 3 -25 19 -74 36 -110 37 -82
37 -95 0 -95 -28 0 -29 -2 -33 -57 -4 -48 -10 -61 -37 -85 -22 -19 -42 -28
-66 -28 -34 0 -35 -1 -35 -40 0 -22 -3 -40 -7 -41 -103 -9 -242 -8 -248 2 -4
6 -7 54 -6 105 2 94 2 94 -32 137 -55 68 -70 105 -70 177 -1 100 48 180 135
225 46 23 63 26 124 23 58 -3 80 -9 120 -33z m689 11 c154 -71 192 -276 74
-401 -27 -29 -28 -35 -31 -140 l-3 -110 -130 0 -130 0 -3 43 c-3 41 -4 42 -37
42 -21 0 -44 9 -62 24 -23 20 -29 34 -33 82 -5 58 -6 59 -37 62 -19 2 -33 9
-33 16 0 7 16 47 35 89 19 42 35 88 35 103 0 68 81 171 155 198 62 23 142 20
200 -8z m-61 -723 c-14 -77 -59 -139 -129 -176 -36 -20 -58 -22 -227 -25 -219
-4 -274 6 -338 65 -27 23 -46 34 -60 30 -18 -5 -19 -1 -13 62 3 36 7 67 8 69
2 2 26 -13 54 -33 49 -36 63 -55 39 -55 -16 0 22 -39 55 -57 43 -22 406 -19
454 4 44 20 82 71 90 117 5 33 8 36 40 36 34 0 34 0 27 -37z"/>
<path d="M290 960 c-8 -5 -24 -10 -35 -10 -11 0 -38 -17 -61 -37 -73 -68 -69
-162 12 -239 19 -17 34 -38 34 -47 0 -11 10 -15 35 -15 35 0 35 0 35 43 0 32
7 52 23 71 22 26 29 27 100 26 90 -1 120 16 120 65 0 40 -47 99 -98 122 -49
22 -145 34 -165 21z m87 -72 c13 -4 26 -2 29 3 3 5 11 9 17 8 9 0 9 -2 0 -6
-15 -5 -16 -22 -4 -42 7 -11 13 -11 32 0 22 11 23 11 10 -4 -12 -15 -11 -17 7
-17 11 0 25 -6 31 -14 9 -11 2 -10 -35 2 -25 8 -52 25 -61 38 -10 16 -25 24
-42 24 -36 0 -42 -7 -31 -36 9 -24 -4 -83 -16 -71 -3 3 -1 14 5 25 15 29 3 52
-27 52 -14 0 -22 3 -19 6 3 4 2 16 -4 28 -8 17 -7 16 11 -4 l21 -25 21 27 c12
16 24 24 27 20 3 -5 16 -11 28 -14z m-130 -56 c-23 -26 -21 -42 6 -43 l22 -2
-22 -4 c-30 -6 -29 -17 2 -37 15 -10 25 -26 24 -39 0 -21 -1 -21 -9 -2 -14 36
-36 48 -54 30 -9 -9 -16 -12 -16 -6 0 5 5 13 10 16 19 12 11 62 -12 78 l-23
15 26 -5 c15 -3 30 0 33 6 4 6 12 11 18 11 6 0 4 -8 -5 -18z m130 -18 c-3 -3
-12 -4 -19 -1 -8 3 -5 6 6 6 11 1 17 -2 13 -5z"/>
<path d="M521 726 c-15 -18 -4 -46 19 -46 28 0 45 27 30 45 -16 19 -34 19 -49
1z"/>
<path d="M959 943 c-55 -27 -109 -89 -109 -125 0 -15 10 -36 22 -47 18 -18 33
-20 95 -18 66 3 77 0 99 -20 19 -18 24 -32 24 -73 0 -38 4 -50 15 -50 12 0 15
13 15 55 0 46 4 59 25 77 31 27 32 38 3 38 -26 0 -21 5 14 14 23 5 25 3 21
-14 -3 -12 2 -30 13 -43 l19 -22 -22 19 c-22 18 -24 18 -43 1 -25 -22 -30
-125 -6 -125 8 0 17 11 20 25 3 13 20 35 37 47 71 52 76 158 11 229 -25 27
-45 39 -63 39 -16 0 -31 4 -34 10 -10 17 -110 6 -156 -17z m142 -81 c9 -1 21
7 27 20 10 20 11 20 7 2 -7 -26 46 -69 64 -51 6 6 13 8 17 5 3 -4 -4 -11 -15
-17 -17 -9 -24 -8 -41 9 -11 11 -33 20 -51 20 -31 0 -32 0 -26 -42 4 -35 3
-39 -6 -20 -6 14 -20 23 -36 23 -24 2 -24 2 -3 6 24 5 47 37 36 54 -3 6 -17 9
-30 6 -30 -5 -31 5 -1 18 18 8 24 6 32 -10 6 -11 17 -21 26 -23z m-91 18 c0
-19 -44 -60 -63 -60 -18 0 -19 2 -7 10 13 9 13 11 0 20 -8 5 -10 10 -4 10 5 0
15 -5 21 -11 17 -17 36 0 31 26 -4 16 -1 22 9 18 7 -3 13 -9 13 -13z"/>
<path d="M834 726 c-10 -26 4 -48 28 -44 17 2 23 10 23 28 0 18 -6 26 -23 28
-13 2 -25 -3 -28 -12z"/>
</g>
</svg>
